<?xml version="1.0" encoding="UTF-8"?>
<svg xmlns="http://www.w3.org/2000/svg" xmlns:xlink="http://www.w3.org/1999/xlink" width="9px" height="9px" viewBox="0 0 9 9" version="1.1">
<g id="surface1">
<path style=" stroke:none;fill-rule:nonzero;fill:rgb(0%,0%,0%);fill-opacity:1;" d="M 8.6875 1.226562 L 0.304688 1.226562 C 0.136719 1.226562 0 1.363281 0 1.53125 L 0 7.457031 C 0 7.628906 0.136719 7.761719 0.304688 7.761719 L 8.6875 7.761719 C 8.855469 7.761719 8.992188 7.628906 8.992188 7.457031 L 8.992188 1.53125 C 8.992188 1.363281 8.855469 1.226562 8.6875 1.226562 Z M 8.382812 7.152344 L 0.609375 7.152344 L 0.609375 1.835938 L 8.382812 1.835938 Z M 8.382812 7.152344 "/>
<path style=" stroke:none;fill-rule:nonzero;fill:rgb(0%,0%,0%);fill-opacity:1;" d="M 1.410156 3.273438 L 4.335938 5.078125 C 4.382812 5.105469 4.441406 5.121094 4.496094 5.121094 C 4.550781 5.121094 4.605469 5.105469 4.65625 5.078125 L 7.582031 3.273438 C 7.726562 3.183594 7.769531 2.996094 7.683594 2.855469 C 7.59375 2.710938 7.40625 2.664062 7.261719 2.753906 L 4.496094 4.457031 L 1.726562 2.753906 C 1.585938 2.664062 1.398438 2.710938 1.308594 2.855469 C 1.21875 2.996094 1.265625 3.183594 1.410156 3.273438 Z M 1.410156 3.273438 "/>
</g>
</svg>
