<?xml version="1.0" encoding="UTF-8"?>
<svg xmlns="http://www.w3.org/2000/svg" xmlns:xlink="http://www.w3.org/1999/xlink" width="16px" height="16px" viewBox="0 0 16 16" version="1.1">
<g id="surface1">
<path style=" stroke:none;fill-rule:nonzero;fill:rgb(100%,100%,100%);fill-opacity:1;" d="M 13.222656 11.785156 L 2.816406 11.785156 C 2.550781 11.785156 2.445312 11.613281 2.445312 11.40625 L 4.210938 4.59375 C 4.210938 4.382812 4.378906 4.214844 4.582031 4.214844 L 14.988281 4.214844 C 15.191406 4.214844 15.359375 4.382812 15.359375 4.59375 L 13.59375 11.40625 C 13.59375 11.617188 13.425781 11.785156 13.222656 11.785156 Z M 13.222656 11.785156 "/>
<path style="fill-rule:nonzero;fill:rgb(43.529412%,74.901961%,94.117647%);fill-opacity:1;stroke-width:0.5;stroke-linecap:butt;stroke-linejoin:miter;stroke:rgb(43.529412%,74.901961%,94.117647%);stroke-opacity:1;stroke-miterlimit:10;" d="M 122.8125 36.0625 C 122.8125 36.0625 121.75 34.875 120.3125 36 L 76.84375 64.78125 C 73.84375 67.1875 69.71875 67.1875 66.71875 64.75 L 36.4375 35.5 C 35.96875 35.09375 35.25 35.15625 34.875 35.625 C 34.46875 36.125 34.53125 36.84375 35 37.25 L 52.9375 56.9375 L 20.5625 92.125 C 20.125 92.59375 20.0625 93 20.375 93.1875 C 20.8125 93.53125 21.125 94.4375 21.625 93.9375 L 56.1875 60.5 L 64.875 70.03125 C 68.78125 73.5 74.53125 73.46875 78.40625 69.90625 L 88.0625 62.4375 L 105.96875 92.84375 C 106.5 93.34375 106.9375 93.53125 107.375 93.1875 C 107.6875 93 108.9375 92.28125 108.53125 91.8125 L 91.90625 59.46875 L 121.4375 36.6875 C 121.90625 36.28125 122.8125 36.0625 122.8125 36.0625 Z M 122.8125 36.0625 " transform="matrix(0.125,0,0,0.125,0,0)"/>
<path style="fill:none;stroke-width:4;stroke-linecap:butt;stroke-linejoin:miter;stroke:rgb(43.529412%,74.901961%,94.117647%);stroke-opacity:1;stroke-miterlimit:10;" d="M 105.78125 94.28125 L 22.53125 94.28125 C 20.40625 94.28125 19.5625 92.90625 19.5625 91.25 L 33.6875 36.75 C 33.6875 35.0625 35.03125 33.71875 36.65625 33.71875 L 119.90625 33.71875 C 121.53125 33.71875 122.875 35.0625 122.875 36.75 L 108.75 91.25 C 108.75 92.9375 107.40625 94.28125 105.78125 94.28125 Z M 105.78125 94.28125 " transform="matrix(0.125,0,0,0.125,0,0)"/>
<path style="fill:none;stroke-width:4;stroke-linecap:round;stroke-linejoin:round;stroke:rgb(69.019608%,74.509804%,77.254902%);stroke-opacity:1;stroke-miterlimit:10;" d="M 5.125 36.125 L 26.6875 36.125 " transform="matrix(0.125,0,0,0.125,0,0)"/>
<path style="fill:none;stroke-width:4;stroke-linecap:round;stroke-linejoin:round;stroke:rgb(69.019608%,74.509804%,77.254902%);stroke-opacity:1;stroke-miterlimit:10;" d="M 5.125 47.3125 L 20.59375 47.3125 " transform="matrix(0.125,0,0,0.125,0,0)"/>
<path style="fill:none;stroke-width:4;stroke-linecap:round;stroke-linejoin:round;stroke:rgb(69.019608%,74.509804%,77.254902%);stroke-opacity:1;stroke-miterlimit:10;" d="M 5.125 47.3125 L 17.65625 47.3125 " transform="matrix(0.125,0,0,0.125,0,0)"/>
<path style="fill:none;stroke-width:4;stroke-linecap:round;stroke-linejoin:round;stroke:rgb(69.019608%,74.509804%,77.254902%);stroke-opacity:1;stroke-miterlimit:10;" d="M 5.125 57.5 L 11.375 57.5 " transform="matrix(0.125,0,0,0.125,0,0)"/>
</g>
</svg>
