<?xml version="1.0" encoding="UTF-8"?>
<svg xmlns="http://www.w3.org/2000/svg" xmlns:xlink="http://www.w3.org/1999/xlink" width="9px" height="9px" viewBox="0 0 9 9" version="1.1">
<g id="surface1">
<path style=" stroke:none;fill-rule:nonzero;fill:rgb(100%,100%,100%);fill-opacity:1;" d="M 7.4375 6.628906 L 1.585938 6.628906 C 1.4375 6.628906 1.375 6.535156 1.375 6.414062 L 2.367188 2.582031 C 2.367188 2.464844 2.460938 2.371094 2.578125 2.371094 L 8.429688 2.371094 C 8.546875 2.371094 8.640625 2.464844 8.640625 2.582031 L 7.648438 6.414062 C 7.648438 6.535156 7.554688 6.628906 7.4375 6.628906 Z M 7.4375 6.628906 "/>
<path style="fill-rule:nonzero;fill:rgb(43.529412%,74.901961%,94.117647%);fill-opacity:1;stroke-width:0.5;stroke-linecap:butt;stroke-linejoin:miter;stroke:rgb(43.529412%,74.901961%,94.117647%);stroke-opacity:1;stroke-miterlimit:10;" d="M 122.833333 36.055556 C 122.833333 36.055556 121.722222 34.833333 120.333333 36 L 76.833333 64.777778 C 73.833333 67.222222 69.722222 67.166667 66.722222 64.777778 L 36.444444 35.5 C 35.944444 35.111111 35.222222 35.166667 34.833333 35.666667 C 34.444444 36.111111 34.555556 36.833333 35 37.222222 L 52.944444 56.944444 L 20.555556 92.111111 C 20.166667 92.611111 20.055556 93 20.333333 93.222222 C 20.833333 93.555556 21.111111 94.444444 21.611111 93.944444 L 56.166667 60.5 L 64.833333 70.055556 C 68.777778 73.5 74.5 73.444444 78.388889 69.944444 L 88.055556 62.444444 L 105.944444 92.833333 C 106.5 93.333333 106.944444 93.555556 107.388889 93.222222 C 107.666667 93 108.944444 92.277778 108.5 91.777778 L 91.888889 59.5 L 121.444444 36.666667 C 121.888889 36.277778 122.833333 36.055556 122.833333 36.055556 Z M 122.833333 36.055556 " transform="matrix(0.0703125,0,0,0.0703125,0,0)"/>
<path style="fill:none;stroke-width:4;stroke-linecap:butt;stroke-linejoin:miter;stroke:rgb(43.529412%,74.901961%,94.117647%);stroke-opacity:1;stroke-miterlimit:10;" d="M 105.777778 94.277778 L 22.555556 94.277778 C 20.444444 94.277778 19.555556 92.944444 19.555556 91.222222 L 33.666667 36.722222 C 33.666667 35.055556 35 33.722222 36.666667 33.722222 L 119.888889 33.722222 C 121.555556 33.722222 122.888889 35.055556 122.888889 36.722222 L 108.777778 91.222222 C 108.777778 92.944444 107.444444 94.277778 105.777778 94.277778 Z M 105.777778 94.277778 " transform="matrix(0.0703125,0,0,0.0703125,0,0)"/>
<path style="fill:none;stroke-width:4;stroke-linecap:round;stroke-linejoin:round;stroke:rgb(69.019608%,74.509804%,77.254902%);stroke-opacity:1;stroke-miterlimit:10;" d="M 5.111111 36.111111 L 26.666667 36.111111 " transform="matrix(0.0703125,0,0,0.0703125,0,0)"/>
<path style="fill:none;stroke-width:4;stroke-linecap:round;stroke-linejoin:round;stroke:rgb(69.019608%,74.509804%,77.254902%);stroke-opacity:1;stroke-miterlimit:10;" d="M 5.111111 47.333333 L 20.555556 47.333333 " transform="matrix(0.0703125,0,0,0.0703125,0,0)"/>
<path style="fill:none;stroke-width:4;stroke-linecap:round;stroke-linejoin:round;stroke:rgb(69.019608%,74.509804%,77.254902%);stroke-opacity:1;stroke-miterlimit:10;" d="M 5.111111 47.333333 L 17.666667 47.333333 " transform="matrix(0.0703125,0,0,0.0703125,0,0)"/>
<path style="fill:none;stroke-width:4;stroke-linecap:round;stroke-linejoin:round;stroke:rgb(69.019608%,74.509804%,77.254902%);stroke-opacity:1;stroke-miterlimit:10;" d="M 5.111111 57.5 L 11.388889 57.5 " transform="matrix(0.0703125,0,0,0.0703125,0,0)"/>
</g>
</svg>
