<svg width="37" height="37" viewBox="0 0 37 37" fill="none" xmlns="http://www.w3.org/2000/svg">
    <path d="M30.828 0H4.801A4.801 4.801 0 0 0 0 4.801v26.027a4.801 4.801 0 0 0 4.801 4.802h12.837l.021-12.732h-3.307a.78.78 0 0 1-.78-.778l-.017-4.104a.78.78 0 0 1 .781-.783h3.302v-3.966c0-4.602 2.81-7.108 6.916-7.108h3.368c.431 0 .781.35.781.78V10.4c0 .431-.35.78-.78.78l-2.067.002c-2.233 0-2.665 1.06-2.665 2.617v3.434h4.905a.78.78 0 0 1 .775.872l-.486 4.104a.78.78 0 0 1-.775.689h-4.398l-.021 12.732h7.637a4.801 4.801 0 0 0 4.802-4.801V4.8A4.801 4.801 0 0 0 30.828 0z" fill="#475993"/>
</svg>
