<?xml version="1.0" encoding="UTF-8"?>
<svg xmlns="http://www.w3.org/2000/svg" xmlns:xlink="http://www.w3.org/1999/xlink" width="24px" height="28px" viewBox="0 0 24 28" version="1.1">
<g id="surface1">
<path style=" stroke:none;fill-rule:nonzero;fill:rgb(23.137255%,34.901961%,59.607843%);fill-opacity:1;" d="M 24 14 C 24 21.730469 18.628906 28 12 28 C 5.371094 28 0 21.730469 0 14 C 0 6.269531 5.371094 0 12 0 C 18.628906 0 24 6.269531 24 14 Z M 24 14 "/>
<path style=" stroke:none;fill-rule:nonzero;fill:rgb(100%,100%,100%);fill-opacity:1;" d="M 15.015625 14.546875 L 12.875 14.546875 L 12.875 23.699219 L 9.632812 23.699219 L 9.632812 14.546875 L 8.089844 14.546875 L 8.089844 11.332031 L 9.632812 11.332031 L 9.632812 9.25 C 9.632812 7.761719 10.238281 5.429688 12.90625 5.429688 L 15.308594 5.441406 L 15.308594 8.566406 L 13.5625 8.566406 C 13.277344 8.566406 12.875 8.730469 12.875 9.441406 L 12.875 11.335938 L 15.300781 11.335938 Z M 15.015625 14.546875 "/>
</g>
</svg>
