<?xml version="1.0" encoding="UTF-8"?>
<svg xmlns="http://www.w3.org/2000/svg" xmlns:xlink="http://www.w3.org/1999/xlink" width="25px" height="px" viewBox="0 0 25 25" version="1.1">
<g id="surface1">
<path style=" stroke:none;fill-rule:nonzero;fill:rgb(0%,0%,0%);fill-opacity:1;" d="M 6.589844 13.316406 L 9.328125 13.316406 L 9.328125 24.597656 C 9.328125 24.820312 9.511719 25 9.734375 25 L 14.378906 25 C 14.601562 25 14.78125 24.820312 14.78125 24.597656 L 14.78125 13.367188 L 17.933594 13.367188 C 18.136719 13.367188 18.308594 13.214844 18.332031 13.011719 L 18.8125 8.859375 C 18.824219 8.742188 18.789062 8.628906 18.710938 8.542969 C 18.636719 8.457031 18.527344 8.410156 18.410156 8.410156 L 14.78125 8.410156 L 14.78125 5.804688 C 14.78125 5.019531 15.203125 4.621094 16.039062 4.621094 C 16.15625 4.621094 18.410156 4.621094 18.410156 4.621094 C 18.632812 4.621094 18.8125 4.441406 18.8125 4.21875 L 18.8125 0.40625 C 18.8125 0.183594 18.632812 0.00390625 18.410156 0.00390625 L 15.140625 0.00390625 C 15.117188 0 15.066406 0 14.992188 0 C 14.425781 0 12.453125 0.113281 10.894531 1.542969 C 9.167969 3.132812 9.410156 5.035156 9.464844 5.363281 L 9.464844 8.40625 L 6.589844 8.40625 C 6.367188 8.40625 6.1875 8.589844 6.1875 8.8125 L 6.1875 12.910156 C 6.1875 13.132812 6.367188 13.316406 6.589844 13.316406 Z M 6.589844 13.316406 "/>
</g>
</svg>
