<?xml version="1.0" encoding="UTF-8"?>
<svg xmlns="http://www.w3.org/2000/svg" xmlns:xlink="http://www.w3.org/1999/xlink" width="24px" height="28px" viewBox="0 0 24 28" version="1.1">
<g id="surface1">
<path style=" stroke:none;fill-rule:nonzero;fill:rgb(0%,0%,0%);fill-opacity:1;" d="M 12 0 C 5.417969 0 0.0625 6.25 0.0625 13.929688 C 0.0625 17.132812 1.007812 20.234375 2.734375 22.710938 C 2.242188 24.160156 1.417969 25.410156 0.335938 26.347656 C 0.167969 26.492188 0.0859375 26.730469 0.117188 26.96875 C 0.148438 27.203125 0.292969 27.402344 0.488281 27.480469 C 1.351562 27.824219 2.253906 28 3.164062 28 C 4.613281 28 6.03125 27.558594 7.28125 26.726562 C 8.773438 27.476562 10.359375 27.855469 12 27.855469 C 18.582031 27.855469 23.9375 21.609375 23.9375 13.929688 C 23.9375 6.25 18.582031 0 12 0 Z M 12 26.5625 C 10.421875 26.5625 8.898438 26.171875 7.476562 25.40625 C 7.304688 25.316406 7.109375 25.332031 6.949219 25.445312 C 5.816406 26.269531 4.507812 26.703125 3.164062 26.703125 C 2.71875 26.703125 2.273438 26.65625 1.835938 26.558594 C 2.761719 25.511719 3.464844 24.230469 3.890625 22.796875 C 3.957031 22.578125 3.917969 22.335938 3.789062 22.160156 C 2.101562 19.875 1.171875 16.949219 1.171875 13.929688 C 1.171875 6.960938 6.03125 1.296875 12 1.296875 C 17.96875 1.296875 22.828125 6.960938 22.828125 13.929688 C 22.828125 20.894531 17.96875 26.5625 12 26.5625 Z M 12 26.5625 "/>
<path style=" stroke:none;fill-rule:nonzero;fill:rgb(0%,0%,0%);fill-opacity:1;" d="M 15.195312 9.816406 L 13.625 9.816406 L 13.625 9.21875 C 13.625 9.167969 13.628906 9.136719 13.632812 9.117188 C 13.640625 9.117188 13.648438 9.117188 13.660156 9.117188 L 15.160156 9.117188 C 15.464844 9.117188 15.714844 8.828125 15.714844 8.46875 L 15.714844 5.796875 C 15.714844 5.4375 15.46875 5.148438 15.160156 5.148438 L 13.09375 5.136719 C 10.605469 5.136719 9.726562 7.25 9.726562 9.054688 L 9.726562 9.816406 L 8.953125 9.816406 C 8.648438 9.816406 8.398438 10.105469 8.398438 10.464844 L 8.398438 13.585938 C 8.398438 13.941406 8.648438 14.230469 8.953125 14.230469 L 9.734375 14.230469 L 9.734375 21.382812 C 9.734375 21.742188 9.984375 22.03125 10.292969 22.03125 L 12.964844 22.03125 C 13.273438 22.03125 13.519531 21.742188 13.519531 21.382812 L 13.519531 14.230469 L 14.949219 14.230469 C 15.238281 14.230469 15.476562 13.976562 15.503906 13.644531 L 15.746094 10.523438 C 15.761719 10.34375 15.707031 10.164062 15.601562 10.027344 C 15.5 9.894531 15.347656 9.816406 15.195312 9.816406 Z M 14.441406 12.9375 L 12.964844 12.9375 C 12.660156 12.9375 12.410156 13.226562 12.410156 13.585938 L 12.410156 20.734375 L 10.847656 20.734375 L 10.847656 13.585938 C 10.847656 13.226562 10.597656 12.9375 10.292969 12.9375 L 9.511719 12.9375 L 9.511719 11.113281 L 10.28125 11.113281 C 10.585938 11.113281 10.835938 10.824219 10.835938 10.464844 L 10.835938 9.054688 C 10.835938 8.265625 11.054688 6.433594 13.089844 6.433594 L 14.605469 6.441406 L 14.605469 7.820312 L 13.660156 7.820312 C 13.105469 7.820312 12.511719 8.257812 12.511719 9.21875 L 12.511719 10.464844 C 12.511719 10.824219 12.761719 11.113281 13.070312 11.113281 L 14.585938 11.113281 Z M 14.441406 12.9375 "/>
</g>
</svg>
