<?xml version="1.0" encoding="UTF-8"?>
<svg xmlns="http://www.w3.org/2000/svg" xmlns:xlink="http://www.w3.org/1999/xlink" width="15px" height="15px" viewBox="0 0 15 15" version="1.1">
<g id="surface1">
<path style=" stroke:none;fill-rule:nonzero;fill:rgb(96.862745%,57.647059%,11.764706%);fill-opacity:1;" d="M 10.039062 3.515625 L 7.5 3.515625 L 7.5 1.40625 C 7.5 0.695312 8.269531 0 8.980469 0 L 11.015625 0 L 11.015625 2.539062 C 11.015625 3.078125 10.578125 3.515625 10.039062 3.515625 Z M 10.039062 3.515625 "/>
<path style=" stroke:none;fill-rule:nonzero;fill:rgb(98.431373%,69.019608%,23.137255%);fill-opacity:1;" d="M 4.96875 3.515625 L 7.511719 3.515625 L 7.511719 1.40625 C 7.511719 0.695312 6.738281 0 6.027344 0 L 3.996094 0 L 3.996094 2.539062 C 3.996094 3.078125 4.429688 3.515625 4.96875 3.515625 Z M 4.96875 3.515625 "/>
<path style=" stroke:none;fill-rule:nonzero;fill:rgb(100%,100%,100%);fill-opacity:1;" d="M 4.6875 3.28125 L 4.105469 3.273438 L 4.128906 0.351562 L 4.6875 0.351562 Z M 4.6875 3.28125 "/>
<path style=" stroke:none;fill-rule:nonzero;fill:rgb(91.372549%,28.235294%,23.921569%);fill-opacity:1;" d="M 2.109375 5.859375 L 12.890625 5.859375 L 12.890625 14.765625 L 2.109375 14.765625 Z M 2.109375 5.859375 "/>
<path style=" stroke:none;fill-rule:nonzero;fill:rgb(96.862745%,57.647059%,11.764706%);fill-opacity:1;" d="M 6.796875 3.515625 L 6.796875 0.46875 L 7.265625 0.46875 L 7.5 3.515625 Z M 6.796875 3.515625 "/>
<path style=" stroke:none;fill-rule:nonzero;fill:rgb(92.941176%,42.745098%,39.215686%);fill-opacity:1;" d="M 2.109375 5.859375 L 5.15625 5.859375 L 5.15625 14.765625 L 2.109375 14.765625 Z M 2.109375 5.859375 "/>
<path style=" stroke:none;fill-rule:nonzero;fill:rgb(96.862745%,57.647059%,11.764706%);fill-opacity:1;" d="M 6.09375 5.859375 L 8.90625 5.859375 L 8.90625 14.765625 L 6.09375 14.765625 Z M 6.09375 5.859375 "/>
<path style=" stroke:none;fill-rule:nonzero;fill:rgb(91.372549%,28.235294%,23.921569%);fill-opacity:1;" d="M 1.40625 3.515625 L 13.59375 3.515625 L 13.59375 5.859375 L 1.40625 5.859375 Z M 1.40625 3.515625 "/>
<path style=" stroke:none;fill-rule:nonzero;fill:rgb(96.862745%,57.647059%,11.764706%);fill-opacity:1;" d="M 5.625 3.515625 L 9.375 3.515625 L 9.375 5.859375 L 5.625 5.859375 Z M 5.625 3.515625 "/>
<path style=" stroke:none;fill-rule:nonzero;fill:rgb(92.941176%,42.745098%,39.215686%);fill-opacity:1;" d="M 1.40625 3.515625 L 4.6875 3.515625 L 4.6875 5.859375 L 1.40625 5.859375 Z M 1.40625 3.515625 "/>
<path style=" stroke:none;fill-rule:nonzero;fill:rgb(98.431373%,69.019608%,23.137255%);fill-opacity:1;" d="M 5.625 3.515625 L 7.734375 3.515625 L 7.734375 5.859375 L 5.625 5.859375 Z M 5.625 3.515625 "/>
<path style=" stroke:none;fill-rule:nonzero;fill:rgb(98.431373%,69.019608%,23.137255%);fill-opacity:1;" d="M 6.09375 6.09375 L 7.96875 6.09375 L 7.96875 14.765625 L 6.09375 14.765625 Z M 6.09375 6.09375 "/>
<path style=" stroke:none;fill-rule:nonzero;fill:rgb(96.862745%,57.647059%,11.764706%);fill-opacity:1;" d="M 7.265625 11.015625 L 4.921875 11.015625 L 4.921875 7.03125 L 6.09375 6.09375 L 7.265625 7.03125 Z M 7.265625 11.015625 "/>
<path style=" stroke:none;fill-rule:nonzero;fill:rgb(100%,100%,100%);fill-opacity:1;" d="M 2.109375 5.859375 L 2.8125 5.859375 L 2.8125 14.765625 L 2.109375 14.765625 Z M 2.109375 5.859375 "/>
<path style=" stroke:none;fill-rule:nonzero;fill:rgb(100%,100%,100%);fill-opacity:1;" d="M 1.40625 3.515625 L 2.109375 3.515625 L 2.109375 5.859375 L 1.40625 5.859375 Z M 1.40625 3.515625 "/>
<path style=" stroke:none;fill-rule:nonzero;fill:rgb(11.372549%,11.372549%,10.588235%);fill-opacity:1;" d="M 13.835938 3.273438 L 10.894531 3.273438 C 11.128906 3.015625 11.269531 2.679688 11.269531 2.308594 L 11.269531 0 L 8.699219 0 C 8.316406 0 7.953125 0.148438 7.683594 0.421875 C 7.613281 0.488281 7.554688 0.566406 7.5 0.644531 C 7.445312 0.566406 7.386719 0.488281 7.316406 0.421875 C 7.046875 0.148438 6.683594 0 6.300781 0 L 3.730469 0 L 3.730469 2.308594 C 3.730469 2.679688 3.871094 3.015625 4.105469 3.273438 L 1.164062 3.273438 L 1.164062 6.101562 L 1.875 6.101562 L 1.875 15 L 13.125 15 L 13.125 6.101562 L 13.835938 6.101562 Z M 5.164062 10.773438 L 5.164062 7.148438 L 6.09375 6.40625 L 7.023438 7.148438 L 7.023438 10.773438 Z M 7.507812 11.257812 L 7.507812 6.914062 L 6.496094 6.101562 L 8.664062 6.101562 L 8.664062 14.53125 L 6.335938 14.53125 L 6.335938 11.257812 Z M 5.867188 5.617188 L 5.867188 3.757812 L 9.132812 3.757812 L 9.132812 5.617188 Z M 8.015625 0.75 C 8.199219 0.570312 8.441406 0.46875 8.699219 0.46875 L 10.800781 0.46875 L 10.800781 2.308594 C 10.800781 2.835938 10.378906 3.261719 9.855469 3.273438 L 7.734375 3.273438 L 7.734375 1.433594 C 7.734375 1.429688 7.734375 1.425781 7.734375 1.417969 C 7.738281 1.167969 7.835938 0.929688 8.015625 0.75 Z M 4.199219 2.308594 L 4.199219 0.46875 L 6.300781 0.46875 C 6.558594 0.46875 6.800781 0.570312 6.984375 0.75 C 7.164062 0.929688 7.261719 1.167969 7.265625 1.417969 C 7.265625 1.425781 7.265625 1.429688 7.265625 1.433594 L 7.265625 3.273438 L 5.144531 3.273438 C 4.621094 3.261719 4.199219 2.835938 4.199219 2.308594 Z M 1.648438 3.757812 L 5.382812 3.757812 L 5.382812 5.617188 L 1.648438 5.617188 Z M 2.34375 6.101562 L 5.691406 6.101562 L 4.679688 6.914062 L 4.679688 11.257812 L 5.851562 11.257812 L 5.851562 14.53125 L 2.34375 14.53125 Z M 12.65625 14.53125 L 9.148438 14.53125 L 9.148438 6.101562 L 12.65625 6.101562 Z M 13.351562 5.617188 L 9.617188 5.617188 L 9.617188 3.757812 L 13.351562 3.757812 Z M 13.351562 5.617188 "/>
<path style=" stroke:none;fill-rule:nonzero;fill:rgb(11.372549%,11.372549%,10.588235%);fill-opacity:1;" d="M 5.625 9.835938 L 6.5625 9.835938 L 6.5625 10.320312 L 5.625 10.320312 Z M 5.625 9.835938 "/>
</g>
</svg>
