<?xml version="1.0" encoding="UTF-8"?>
<svg xmlns="http://www.w3.org/2000/svg" xmlns:xlink="http://www.w3.org/1999/xlink" width="9px" height="9px" viewBox="0 0 9 9" version="1.1">
<g id="surface1">
<path style=" stroke:none;fill-rule:nonzero;fill:rgb(81.176471%,86.27451%,89.803922%);fill-opacity:1;" d="M 8.769531 8.4375 L 7.660156 8.894531 C 7.25 9.0625 6.785156 9.027344 6.402344 8.804688 L 6.226562 8.699219 C 3.96875 7.371094 1.628906 5.03125 0.300781 2.773438 L 0.195312 2.597656 C -0.0273438 2.214844 -0.0625 1.75 0.105469 1.339844 L 0.5625 0.230469 L 0.945312 0.0507812 C 1.175781 -0.0585938 1.457031 0.015625 1.601562 0.230469 L 2.726562 1.921875 C 2.847656 2.101562 2.84375 2.335938 2.71875 2.511719 L 2.378906 2.988281 L 2.007812 3.507812 C 2.367188 4.140625 2.921875 4.832031 3.542969 5.457031 C 4.167969 6.078125 4.859375 6.632812 5.492188 6.992188 L 6.011719 6.621094 L 6.488281 6.28125 C 6.664062 6.15625 6.898438 6.152344 7.078125 6.273438 L 8.769531 7.398438 C 8.984375 7.542969 9.058594 7.820312 8.949219 8.054688 Z M 8.769531 8.4375 "/>
<path style=" stroke:none;fill-rule:nonzero;fill:rgb(72.941176%,77.647059%,80%);fill-opacity:1;" d="M 5.882812 7.246094 L 6.402344 6.875 L 6.878906 6.535156 C 7.035156 6.425781 7.234375 6.410156 7.398438 6.488281 L 7.078125 6.273438 C 6.898438 6.152344 6.664062 6.15625 6.488281 6.28125 L 6.011719 6.621094 L 5.492188 6.992188 C 5.453125 6.96875 5.414062 6.949219 5.375 6.925781 C 5.546875 7.042969 5.714844 7.152344 5.882812 7.246094 Z M 5.882812 7.246094 "/>
<path style=" stroke:none;fill-rule:nonzero;fill:rgb(72.941176%,77.647059%,80%);fill-opacity:1;" d="M 0.691406 3.027344 L 0.585938 2.851562 C 0.363281 2.46875 0.328125 2.003906 0.5 1.59375 L 0.957031 0.484375 L 1.335938 0.304688 C 1.425781 0.261719 1.523438 0.246094 1.617188 0.257812 L 1.601562 0.230469 C 1.457031 0.015625 1.175781 -0.0585938 0.945312 0.0507812 L 0.5625 0.230469 L 0.105469 1.339844 C -0.0625 1.75 -0.0273438 2.214844 0.195312 2.597656 L 0.300781 2.773438 C 1.574219 4.9375 3.773438 7.179688 5.945312 8.527344 C 3.90625 7.160156 1.886719 5.0625 0.691406 3.027344 Z M 0.691406 3.027344 "/>
<path style=" stroke:none;fill-rule:nonzero;fill:rgb(25.490196%,36.862745%,44.705882%);fill-opacity:1;" d="M 2.71875 2.511719 L 2.394531 2.96875 L 0.5625 0.230469 L 0.945312 0.0507812 C 1.175781 -0.0585938 1.457031 0.015625 1.601562 0.230469 L 2.726562 1.921875 C 2.847656 2.101562 2.84375 2.335938 2.71875 2.511719 Z M 2.71875 2.511719 "/>
<path style=" stroke:none;fill-rule:nonzero;fill:rgb(25.490196%,36.862745%,44.705882%);fill-opacity:1;" d="M 8.949219 8.054688 L 8.769531 8.4375 L 6.003906 6.628906 L 6.011719 6.621094 L 6.488281 6.28125 C 6.664062 6.15625 6.898438 6.152344 7.078125 6.273438 L 8.769531 7.398438 C 8.984375 7.542969 9.058594 7.820312 8.949219 8.054688 Z M 8.949219 8.054688 "/>
</g>
</svg>
