<?xml version="1.0" encoding="UTF-8"?>
<svg xmlns="http://www.w3.org/2000/svg" xmlns:xlink="http://www.w3.org/1999/xlink" width="25px" height="px" viewBox="0 0 25 25" version="1.1">
<defs>
<linearGradient id="linear0" gradientUnits="userSpaceOnUse" x1="275.517" y1="4.5714" x2="275.517" y2="549.7202" gradientTransform="matrix(0.0453693,0,0,-0.0453693,0,25.134565)">
<stop offset="0" style="stop-color:rgb(87.843137%,60.784314%,23.921569%);stop-opacity:1;"/>
<stop offset="0.3" style="stop-color:rgb(78.039216%,29.803922%,30.196078%);stop-opacity:1;"/>
<stop offset="0.6" style="stop-color:rgb(76.078431%,9.803922%,45.882353%);stop-opacity:1;"/>
<stop offset="1" style="stop-color:rgb(43.921569%,14.117647%,76.862745%);stop-opacity:1;"/>
</linearGradient>
<linearGradient id="linear1" gradientUnits="userSpaceOnUse" x1="275.517" y1="4.5714" x2="275.517" y2="549.7202" gradientTransform="matrix(0.0453693,0,0,-0.0453693,0,25.134565)">
<stop offset="0" style="stop-color:rgb(87.843137%,60.784314%,23.921569%);stop-opacity:1;"/>
<stop offset="0.3" style="stop-color:rgb(78.039216%,29.803922%,30.196078%);stop-opacity:1;"/>
<stop offset="0.6" style="stop-color:rgb(76.078431%,9.803922%,45.882353%);stop-opacity:1;"/>
<stop offset="1" style="stop-color:rgb(43.921569%,14.117647%,76.862745%);stop-opacity:1;"/>
</linearGradient>
<linearGradient id="linear2" gradientUnits="userSpaceOnUse" x1="418.306" y1="4.5714" x2="418.306" y2="549.7202" gradientTransform="matrix(0.0453693,0,0,-0.0453693,0,25.134565)">
<stop offset="0" style="stop-color:rgb(87.843137%,60.784314%,23.921569%);stop-opacity:1;"/>
<stop offset="0.3" style="stop-color:rgb(78.039216%,29.803922%,30.196078%);stop-opacity:1;"/>
<stop offset="0.6" style="stop-color:rgb(76.078431%,9.803922%,45.882353%);stop-opacity:1;"/>
<stop offset="1" style="stop-color:rgb(43.921569%,14.117647%,76.862745%);stop-opacity:1;"/>
</linearGradient>
</defs>
<g id="surface1">
<path style=" stroke:none;fill-rule:nonzero;fill:url(#linear0);" d="M 17.550781 0 L 7.449219 0 C 3.339844 0 0 3.339844 0 7.449219 L 0 17.550781 C 0 21.660156 3.339844 25 7.449219 25 L 17.550781 25 C 21.660156 25 25 21.660156 25 17.550781 L 25 7.449219 C 25 3.339844 21.660156 0 17.550781 0 Z M 22.484375 17.550781 C 22.484375 20.277344 20.277344 22.484375 17.550781 22.484375 L 7.449219 22.484375 C 4.722656 22.484375 2.515625 20.277344 2.515625 17.550781 L 2.515625 7.449219 C 2.515625 4.722656 4.722656 2.515625 7.449219 2.515625 L 17.550781 2.515625 C 20.277344 2.515625 22.484375 4.722656 22.484375 7.449219 Z M 22.484375 17.550781 "/>
<path style=" stroke:none;fill-rule:nonzero;fill:url(#linear1);" d="M 12.5 6.035156 C 8.933594 6.035156 6.035156 8.933594 6.035156 12.5 C 6.035156 16.066406 8.933594 18.964844 12.5 18.964844 C 16.066406 18.964844 18.964844 16.066406 18.964844 12.5 C 18.964844 8.933594 16.066406 6.035156 12.5 6.035156 Z M 12.5 16.449219 C 10.316406 16.449219 8.550781 14.683594 8.550781 12.5 C 8.550781 10.316406 10.316406 8.550781 12.5 8.550781 C 14.683594 8.550781 16.449219 10.316406 16.449219 12.5 C 16.449219 14.683594 14.683594 16.449219 12.5 16.449219 Z M 12.5 16.449219 "/>
<path style=" stroke:none;fill-rule:nonzero;fill:url(#linear2);" d="M 20.527344 6.082031 C 20.527344 6.9375 19.832031 7.632812 18.976562 7.632812 C 18.121094 7.632812 17.429688 6.9375 17.429688 6.082031 C 17.429688 5.226562 18.121094 4.535156 18.976562 4.535156 C 19.832031 4.535156 20.527344 5.226562 20.527344 6.082031 Z M 20.527344 6.082031 "/>
</g>
</svg>
