<?xml version="1.0" encoding="UTF-8"?>
<svg xmlns="http://www.w3.org/2000/svg" xmlns:xlink="http://www.w3.org/1999/xlink" width="12px" height="px" viewBox="0 0 12 12" version="1.1">
<g id="surface1">
<path style=" stroke:none;fill-rule:nonzero;fill:rgb(0%,0%,0%);fill-opacity:1;" d="M 7.1875 2.199219 L 1.066406 8.320312 L 1.128906 8.464844 L 1.507812 9.28125 L 2.085938 9.589844 C 2.222656 9.660156 2.332031 9.773438 2.40625 9.910156 L 2.710938 10.488281 L 3.53125 10.867188 L 3.671875 10.929688 L 9.792969 4.808594 Z M 7.1875 2.199219 "/>
<path style=" stroke:none;fill-rule:nonzero;fill:rgb(0%,0%,0%);fill-opacity:1;" d="M 11.890625 2.21875 L 9.777344 0.101562 C 9.707031 0.0351562 9.621094 0 9.53125 0 C 9.441406 0 9.351562 0.0351562 9.285156 0.101562 L 7.480469 1.90625 L 10.089844 4.515625 L 11.890625 2.710938 C 12.027344 2.574219 12.027344 2.355469 11.890625 2.21875 Z M 11.890625 2.21875 "/>
<path style=" stroke:none;fill-rule:nonzero;fill:rgb(0%,0%,0%);fill-opacity:1;" d="M 0.640625 9.058594 L 0.582031 9.296875 L 0.0117188 11.558594 C -0.046875 11.785156 0.128906 11.992188 0.347656 11.992188 C 0.375 11.992188 0.402344 11.988281 0.433594 11.980469 L 2.699219 11.410156 L 2.933594 11.351562 L 3.167969 11.289062 L 3.355469 11.242188 L 2.921875 11.046875 L 2.511719 10.855469 C 2.441406 10.824219 2.386719 10.769531 2.347656 10.703125 L 2.089844 10.214844 L 2.03125 10.101562 C 2 10.042969 1.945312 9.992188 1.886719 9.957031 L 1.773438 9.898438 L 1.285156 9.640625 C 1.214844 9.601562 1.164062 9.546875 1.132812 9.476562 L 0.941406 9.066406 L 0.746094 8.632812 L 0.699219 8.820312 Z M 0.640625 9.058594 "/>
</g>
</svg>
