<?xml version="1.0" encoding="UTF-8"?>
<svg xmlns="http://www.w3.org/2000/svg" xmlns:xlink="http://www.w3.org/1999/xlink" width="12px" height="px" viewBox="0 0 12 12" version="1.1">
<g id="surface1">
<path style=" stroke:none;fill-rule:evenodd;fill:rgb(26.27451%,26.27451%,26.27451%);fill-opacity:1;" d="M 8.835938 7.410156 C 8.550781 7.796875 8.203125 8.554688 7.792969 9.242188 C 7.34375 10 6.828125 8.113281 6.261719 8.113281 C 5.683594 8.113281 5.140625 9.964844 4.671875 9.1875 C 4.269531 8.519531 3.921875 7.800781 3.644531 7.429688 C 0.792969 7.429688 0.707031 11.585938 0.707031 11.585938 L 11.820312 11.585938 C 11.820312 11.585938 12.042969 7.410156 8.835938 7.410156 Z M 8.835938 7.410156 "/>
<path style=" stroke:none;fill-rule:evenodd;fill:rgb(26.27451%,26.27451%,26.27451%);fill-opacity:1;" d="M 8.394531 3.4375 C 8.394531 4.753906 7.464844 7.265625 6.316406 7.265625 C 5.167969 7.265625 4.234375 4.753906 4.234375 3.4375 C 4.234375 2.125 5.167969 1.058594 6.316406 1.058594 C 7.464844 1.058594 8.394531 2.125 8.394531 3.4375 Z M 8.394531 3.4375 "/>
</g>
</svg>
