<?xml version="1.0" encoding="UTF-8"?>
<svg xmlns="http://www.w3.org/2000/svg" xmlns:xlink="http://www.w3.org/1999/xlink" width="12px" height="px" viewBox="0 0 12 12" version="1.1">
<g id="surface1">
<path style=" stroke:none;fill-rule:nonzero;fill:rgb(0%,0%,0%);fill-opacity:1;" d="M 11.183594 7.980469 C 10.574219 7.492188 10.015625 7.253906 9.472656 7.253906 C 8.691406 7.253906 8.128906 7.75 7.617188 8.257812 C 7.558594 8.316406 7.488281 8.347656 7.394531 8.347656 C 6.964844 8.347656 6.207031 7.808594 5.148438 6.746094 C 3.898438 5.496094 3.425781 4.703125 3.746094 4.386719 C 4.605469 3.527344 4.875 2.664062 3.554688 1.027344 C 3.085938 0.4375 2.625 0.152344 2.144531 0.152344 C 1.5 0.152344 1.011719 0.667969 0.582031 1.121094 C 0.503906 1.203125 0.433594 1.277344 0.367188 1.34375 C -0.121094 1.832031 -0.121094 2.898438 0.367188 4.191406 C 0.902344 5.613281 1.960938 7.160156 3.347656 8.546875 C 4.417969 9.617188 5.585938 10.484375 6.71875 11.066406 C 7.710938 11.574219 8.671875 11.847656 9.425781 11.847656 C 9.898438 11.847656 10.28125 11.742188 10.535156 11.535156 C 11.050781 11.109375 12.007812 10.320312 12 9.386719 C 11.996094 8.882812 11.722656 8.414062 11.183594 7.980469 Z M 11.183594 7.980469 "/>
</g>
</svg>
