<?xml version="1.0" encoding="UTF-8"?>
<svg xmlns="http://www.w3.org/2000/svg" xmlns:xlink="http://www.w3.org/1999/xlink" width="12px" height="px" viewBox="0 0 12 12" version="1.1">
<g id="surface1">
<path style=" stroke:none;fill-rule:nonzero;fill:rgb(6.27451%,23.137255%,60.784314%);fill-opacity:1;" d="M 9.664062 7.304688 L 9.664062 7.289062 C 9.664062 7.191406 9.582031 7.113281 9.484375 7.113281 L 0.371094 7.113281 L 0.371094 4.886719 L 11.628906 4.886719 L 11.628906 7.113281 L 10.257812 7.113281 C 10.160156 7.113281 10.078125 7.191406 10.078125 7.289062 L 10.078125 7.304688 Z M 9.664062 7.304688 "/>
<path style=" stroke:none;fill-rule:nonzero;fill:rgb(6.27451%,23.137255%,60.784314%);fill-opacity:1;" d="M 10.257812 7.097656 L 11.613281 7.097656 L 11.613281 4.902344 L 0.386719 4.902344 L 0.386719 7.097656 L 9.484375 7.097656 C 9.589844 7.097656 9.675781 7.183594 9.675781 7.289062 L 10.066406 7.289062 C 10.066406 7.183594 10.152344 7.097656 10.257812 7.097656 Z M 10.257812 7.097656 "/>
<path style=" stroke:none;fill-rule:nonzero;fill:rgb(100%,100%,100%);fill-opacity:1;" d="M 0.386719 2.324219 L 11.613281 2.324219 L 11.613281 4.515625 L 0.386719 4.515625 Z M 0.386719 2.324219 "/>
<path style=" stroke:none;fill-rule:nonzero;fill:rgb(92.941176%,12.156863%,20.392157%);fill-opacity:1;" d="M 0.371094 9.691406 L 0.371094 7.46875 L 9.484375 7.46875 C 9.582031 7.46875 9.664062 7.390625 9.664062 7.289062 L 9.664062 7.273438 L 10.078125 7.273438 L 10.078125 7.289062 C 10.078125 7.390625 10.160156 7.46875 10.257812 7.46875 L 11.628906 7.46875 L 11.628906 9.691406 Z M 0.371094 9.691406 "/>
<path style=" stroke:none;fill-rule:nonzero;fill:rgb(92.941176%,12.156863%,20.392157%);fill-opacity:1;" d="M 10.257812 7.484375 C 10.152344 7.484375 10.066406 7.398438 10.066406 7.289062 L 9.675781 7.289062 C 9.675781 7.398438 9.589844 7.484375 9.484375 7.484375 L 0.386719 7.484375 L 0.386719 9.675781 L 11.613281 9.675781 L 11.613281 7.484375 Z M 10.257812 7.484375 "/>
<path style=" stroke:none;fill-rule:nonzero;fill:rgb(0%,0%,0%);fill-opacity:1;" d="M 11.804688 1.933594 L 0.195312 1.933594 C 0.0859375 1.933594 0 2.023438 0 2.128906 L 0 9.871094 C 0 9.976562 0.0859375 10.066406 0.195312 10.066406 L 11.804688 10.066406 C 11.914062 10.066406 12 9.976562 12 9.871094 L 12 2.128906 C 12 2.023438 11.914062 1.933594 11.804688 1.933594 Z M 11.613281 2.324219 L 11.613281 4.515625 L 0.386719 4.515625 L 0.386719 2.324219 Z M 0.386719 9.675781 L 0.386719 7.484375 L 9.484375 7.484375 C 9.589844 7.484375 9.675781 7.398438 9.675781 7.289062 C 9.675781 7.183594 9.589844 7.097656 9.484375 7.097656 L 0.386719 7.097656 L 0.386719 4.902344 L 11.613281 4.902344 L 11.613281 7.097656 L 10.257812 7.097656 C 10.152344 7.097656 10.066406 7.183594 10.066406 7.289062 C 10.066406 7.398438 10.152344 7.484375 10.257812 7.484375 L 11.613281 7.484375 L 11.613281 9.675781 Z M 0.386719 9.675781 "/>
</g>
</svg>
