<?xml version="1.0" encoding="UTF-8"?>
<svg xmlns="http://www.w3.org/2000/svg" xmlns:xlink="http://www.w3.org/1999/xlink" width="20px" height="25px" viewBox="0 0 20 24" version="1.1">
<g id="surface1">
<path style=" stroke:none;fill-rule:nonzero;fill:rgb(0%,0%,0%);fill-opacity:1;" d="M 13.847656 11.25 C 13.847656 9.804688 13.320312 8.570312 12.265625 7.539062 C 11.210938 6.511719 9.945312 6 8.460938 6 C 6.980469 6 5.710938 6.511719 4.65625 7.539062 C 3.605469 8.570312 3.078125 9.804688 3.078125 11.25 C 3.078125 12.695312 3.605469 13.929688 4.65625 14.960938 C 5.710938 15.988281 6.980469 16.5 8.460938 16.5 C 9.945312 16.5 11.210938 15.988281 12.265625 14.960938 C 13.320312 13.929688 13.847656 12.695312 13.847656 11.25 Z M 20 21 C 20 21.40625 19.847656 21.757812 19.542969 22.054688 C 19.238281 22.351562 18.878906 22.5 18.460938 22.5 C 18.027344 22.5 17.667969 22.351562 17.378906 22.054688 L 13.257812 18.046875 C 11.824219 19.015625 10.222656 19.5 8.460938 19.5 C 7.316406 19.5 6.21875 19.28125 5.175781 18.851562 C 4.128906 18.414062 3.226562 17.828125 2.46875 17.09375 C 1.710938 16.351562 1.113281 15.476562 0.667969 14.453125 C 0.222656 13.4375 0 12.367188 0 11.25 C 0 10.132812 0.222656 9.0625 0.667969 8.046875 C 1.113281 7.023438 1.710938 6.148438 2.46875 5.40625 C 3.226562 4.671875 4.128906 4.085938 5.175781 3.648438 C 6.21875 3.21875 7.316406 3 8.460938 3 C 9.605469 3 10.703125 3.21875 11.75 3.648438 C 12.792969 4.085938 13.695312 4.671875 14.453125 5.40625 C 15.210938 6.148438 15.8125 7.023438 16.257812 8.046875 C 16.699219 9.0625 16.921875 10.132812 16.921875 11.25 C 16.921875 12.96875 16.425781 14.527344 15.433594 15.925781 L 19.554688 19.945312 C 19.851562 20.234375 20 20.585938 20 21 Z M 20 21 "/>
</g>
</svg>
