<?xml version="1.0" encoding="UTF-8"?>
<svg xmlns="http://www.w3.org/2000/svg" xmlns:xlink="http://www.w3.org/1999/xlink" width="24px" height="28px" viewBox="0 0 24 28" version="1.1">
<g id="surface1">
<path style=" stroke:none;fill-rule:nonzero;fill:rgb(0%,0%,0%);fill-opacity:1;" d="M 20.398438 2.9375 C 20.253906 2.765625 20.015625 2.761719 19.867188 2.933594 C 19.71875 3.101562 19.71875 3.378906 19.863281 3.550781 C 21.269531 5.226562 22.046875 7.445312 22.046875 9.792969 L 22.046875 14 C 22.046875 18.917969 18.617188 22.917969 14.40625 22.917969 L 9.996094 22.917969 C 9.894531 22.917969 9.800781 22.964844 9.730469 23.046875 L 6.761719 26.507812 L 6.761719 22.578125 C 6.761719 22.402344 6.675781 22.246094 6.539062 22.175781 C 3.753906 20.753906 1.953125 17.546875 1.953125 14 L 1.953125 9.792969 C 1.953125 4.875 5.382812 0.875 9.59375 0.875 L 14.40625 0.875 C 15.90625 0.875 17.359375 1.382812 18.609375 2.34375 C 18.78125 2.480469 19.015625 2.421875 19.128906 2.222656 C 19.242188 2.019531 19.195312 1.746094 19.023438 1.613281 C 17.652344 0.558594 16.054688 0 14.40625 0 L 9.59375 0 C 4.964844 0 1.199219 4.394531 1.199219 9.792969 L 1.199219 14 C 1.199219 17.796875 3.082031 21.242188 6.011719 22.859375 L 6.011719 27.566406 C 6.011719 27.945312 6.421875 28.144531 6.652344 27.875 L 10.152344 23.792969 L 14.40625 23.792969 C 19.035156 23.792969 22.800781 19.402344 22.800781 14 L 22.800781 9.792969 C 22.796875 7.214844 21.945312 4.777344 20.398438 2.9375 Z M 20.398438 2.9375 "/>
<path style=" stroke:none;fill-rule:nonzero;fill:rgb(0%,0%,0%);fill-opacity:1;" d="M 18.027344 17.410156 L 17.667969 15.128906 C 17.640625 14.953125 17.523438 14.816406 17.371094 14.78125 L 14.535156 14.117188 C 14.414062 14.089844 14.285156 14.136719 14.195312 14.238281 L 13.035156 15.597656 C 11.070312 14.574219 9.988281 13.308594 9.03125 10.921875 L 10.191406 9.566406 C 10.28125 9.464844 10.320312 9.316406 10.296875 9.171875 L 9.730469 5.863281 C 9.699219 5.6875 9.578125 5.550781 9.429688 5.519531 L 7.476562 5.097656 C 7.425781 5.085938 7.375 5.089844 7.324219 5.101562 C 6.8125 5.238281 6.347656 5.539062 5.976562 5.972656 C 5.335938 6.71875 5.089844 7.816406 5.265625 9.136719 C 5.347656 9.738281 5.46875 10.363281 5.625 10.992188 C 5.683594 11.222656 5.894531 11.355469 6.09375 11.289062 C 6.292969 11.222656 6.40625 10.976562 6.347656 10.746094 C 6.199219 10.152344 6.085938 9.566406 6.011719 9 C 5.867188 7.953125 6.035156 7.140625 6.507812 6.589844 C 6.761719 6.296875 7.074219 6.085938 7.417969 5.976562 L 9.042969 6.328125 L 9.519531 9.113281 L 8.316406 10.515625 C 8.207031 10.644531 8.175781 10.839844 8.238281 11.003906 C 9.332031 13.863281 10.617188 15.355469 12.972656 16.523438 C 13.113281 16.589844 13.277344 16.554688 13.382812 16.429688 L 14.585938 15.023438 L 16.972656 15.582031 L 17.273438 17.476562 C 17.183594 17.875 17 18.242188 16.75 18.539062 C 16.277344 19.089844 15.582031 19.285156 14.683594 19.121094 C 12.886719 18.789062 10.394531 17.773438 8.789062 15.90625 L 8.765625 15.878906 C 8.027344 15.011719 7.367188 13.820312 6.859375 12.425781 C 6.777344 12.203125 6.558594 12.101562 6.367188 12.195312 C 6.175781 12.289062 6.085938 12.546875 6.167969 12.769531 C 6.710938 14.265625 7.425781 15.554688 8.234375 16.5 L 8.257812 16.527344 C 9.992188 18.542969 12.652344 19.632812 14.566406 19.984375 C 14.804688 20.03125 15.035156 20.050781 15.257812 20.050781 C 16.082031 20.050781 16.773438 19.75 17.28125 19.15625 C 17.652344 18.726562 17.910156 18.179688 18.023438 17.585938 C 18.035156 17.527344 18.035156 17.46875 18.027344 17.410156 Z M 18.027344 17.410156 "/>
<path style=" stroke:none;fill-rule:nonzero;fill:rgb(0%,0%,0%);fill-opacity:1;" d="M 12.800781 7.949219 C 12.59375 7.949219 12.425781 8.148438 12.425781 8.390625 C 12.425781 8.632812 12.59375 8.828125 12.800781 8.828125 C 13.699219 8.828125 14.429688 9.679688 14.429688 10.726562 C 14.429688 10.96875 14.601562 11.167969 14.804688 11.167969 C 15.011719 11.167969 15.183594 10.96875 15.183594 10.726562 C 15.183594 9.195312 14.113281 7.949219 12.800781 7.949219 Z M 12.800781 7.949219 "/>
<path style=" stroke:none;fill-rule:nonzero;fill:rgb(0%,0%,0%);fill-opacity:1;" d="M 12.800781 6.082031 C 12.65625 6.082031 12.503906 6.089844 12.359375 6.109375 C 12.152344 6.136719 12.003906 6.351562 12.027344 6.59375 C 12.050781 6.832031 12.234375 7.007812 12.441406 6.980469 C 12.5625 6.964844 12.683594 6.957031 12.800781 6.957031 C 14.582031 6.957031 16.035156 8.648438 16.035156 10.726562 C 16.035156 10.867188 16.027344 11.007812 16.015625 11.148438 C 15.992188 11.386719 16.140625 11.605469 16.347656 11.632812 C 16.550781 11.65625 16.738281 11.480469 16.761719 11.242188 C 16.777344 11.074219 16.785156 10.898438 16.785156 10.726562 C 16.785156 8.164062 15 6.082031 12.800781 6.082031 Z M 12.800781 6.082031 "/>
<path style=" stroke:none;fill-rule:nonzero;fill:rgb(0%,0%,0%);fill-opacity:1;" d="M 12.800781 4.210938 C 12.660156 4.210938 12.515625 4.214844 12.371094 4.226562 C 12.164062 4.246094 12.011719 4.457031 12.027344 4.699219 C 12.042969 4.941406 12.222656 5.121094 12.429688 5.101562 C 12.550781 5.089844 12.679688 5.085938 12.800781 5.085938 C 15.46875 5.085938 17.636719 7.617188 17.636719 10.726562 C 17.636719 11.167969 17.59375 11.605469 17.507812 12.03125 C 17.460938 12.261719 17.585938 12.496094 17.78125 12.554688 C 17.980469 12.617188 18.191406 12.46875 18.238281 12.230469 C 18.339844 11.742188 18.390625 11.234375 18.390625 10.726562 C 18.390625 7.132812 15.882812 4.210938 12.800781 4.210938 Z M 12.800781 4.210938 "/>
</g>
</svg>
