<?xml version="1.0" encoding="UTF-8"?>
<svg xmlns="http://www.w3.org/2000/svg" xmlns:xlink="http://www.w3.org/1999/xlink" width="24px" height="28px" viewBox="0 0 24 28" version="1.1">
<g id="surface1">
<path style=" stroke:none;fill-rule:nonzero;fill:rgb(43.529412%,24.705882%,66.666667%);fill-opacity:1;" d="M 24 14 C 24 21.730469 18.628906 28 12 28 C 5.371094 28 0 21.730469 0 14 C 0 6.269531 5.371094 0 12 0 C 18.628906 0 24 6.269531 24 14 Z M 24 14 "/>
<path style=" stroke:none;fill-rule:nonzero;fill:rgb(31.764706%,17.647059%,51.764706%);fill-opacity:1;" d="M 17.207031 7.679688 C 14.285156 6.859375 11.359375 5.894531 8.363281 7.117188 C 6.425781 7.964844 6.425781 10.417969 6.503906 12.492188 C 6.503906 13.058594 5.9375 13.8125 6.183594 14.472656 C 6.667969 16.355469 7.070312 18.242188 8.769531 19.183594 C 9.011719 19.375 8.769531 19.75 8.929688 20.035156 C 8.847656 20.035156 8.6875 20.128906 8.6875 20.222656 C 8.6875 20.675781 8.859375 21.367188 8.746094 21.8125 L 13.902344 27.824219 C 19.203125 26.839844 23.347656 21.804688 23.929688 15.523438 Z M 17.207031 7.679688 "/>
<path style=" stroke:none;fill-rule:nonzero;fill:rgb(100%,100%,100%);fill-opacity:1;" d="M 18.347656 9.839844 L 18.34375 9.820312 C 18.023438 8.308594 16.578125 6.6875 15.25 6.347656 L 15.234375 6.34375 C 13.089844 5.867188 10.910156 5.867188 8.765625 6.34375 L 8.75 6.347656 C 7.421875 6.6875 5.976562 8.308594 5.65625 9.820312 L 5.652344 9.839844 C 5.253906 11.953125 5.253906 14.09375 5.652344 16.207031 L 5.65625 16.222656 C 5.964844 17.671875 7.300781 19.21875 8.578125 19.644531 L 8.578125 21.332031 C 8.578125 21.945312 9.21875 22.246094 9.578125 21.804688 L 11.046875 20.027344 C 11.363281 20.046875 11.683594 20.058594 12 20.058594 C 13.082031 20.058594 14.164062 19.9375 15.234375 19.699219 L 15.25 19.695312 C 16.578125 19.359375 18.023438 17.734375 18.34375 16.222656 L 18.347656 16.207031 C 18.746094 14.09375 18.746094 11.953125 18.347656 9.839844 Z M 17.1875 15.898438 C 16.972656 16.886719 15.875 18.113281 15.003906 18.339844 C 13.863281 18.59375 12.710938 18.699219 11.5625 18.664062 C 11.539062 18.664062 11.515625 18.671875 11.5 18.691406 C 11.339844 18.886719 10.429688 19.972656 10.429688 19.972656 L 9.292969 21.335938 C 9.210938 21.4375 9.0625 21.371094 9.0625 21.230469 L 9.0625 18.433594 C 9.0625 18.386719 9.035156 18.347656 8.996094 18.339844 C 8.125 18.113281 7.027344 16.886719 6.8125 15.898438 C 6.453125 13.988281 6.453125 12.054688 6.8125 10.144531 C 7.027344 9.160156 8.125 7.933594 8.996094 7.707031 C 10.988281 7.261719 13.011719 7.261719 15.003906 7.707031 C 15.875 7.933594 16.972656 9.160156 17.1875 10.144531 C 17.546875 12.054688 17.546875 13.988281 17.1875 15.898438 Z M 17.1875 15.898438 "/>
<path style=" stroke:none;fill-rule:nonzero;fill:rgb(100%,100%,100%);fill-opacity:1;" d="M 13.898438 17.191406 C 13.761719 17.140625 13.636719 17.109375 13.515625 17.054688 C 12.285156 16.457031 11.15625 15.691406 10.257812 14.511719 C 9.75 13.84375 9.351562 13.089844 9.011719 12.289062 C 8.851562 11.910156 8.71875 11.515625 8.582031 11.125 C 8.457031 10.765625 8.640625 10.398438 8.835938 10.128906 C 9.015625 9.875 9.25 9.683594 9.503906 9.539062 C 9.703125 9.429688 9.898438 9.492188 10.042969 9.691406 C 10.355469 10.113281 10.644531 10.558594 10.878906 11.050781 C 11.019531 11.351562 10.980469 11.722656 10.722656 11.929688 C 10.660156 11.976562 10.601562 12.035156 10.542969 12.09375 C 10.492188 12.144531 10.441406 12.191406 10.40625 12.261719 C 10.34375 12.382812 10.339844 12.527344 10.382812 12.660156 C 10.703125 13.6875 11.242188 14.484375 12.125 14.914062 C 12.265625 14.984375 12.410156 15.0625 12.574219 15.039062 C 12.847656 15.003906 12.933594 14.652344 13.125 14.472656 C 13.3125 14.292969 13.550781 14.289062 13.753906 14.4375 C 13.957031 14.585938 14.152344 14.746094 14.347656 14.910156 C 14.535156 15.066406 14.726562 15.222656 14.902344 15.402344 C 15.070312 15.578125 15.128906 15.804688 15.035156 16.042969 C 14.859375 16.472656 14.605469 16.832031 14.242188 17.0625 C 14.136719 17.125 14.011719 17.148438 13.898438 17.191406 C 13.761719 17.140625 14.011719 17.148438 13.898438 17.191406 Z M 13.898438 17.191406 "/>
<path style=" stroke:none;fill-rule:nonzero;fill:rgb(100%,100%,100%);fill-opacity:1;" d="M 12.003906 9.046875 C 13.613281 9.097656 14.933594 10.34375 15.214844 12.199219 C 15.265625 12.515625 15.28125 12.839844 15.300781 13.160156 C 15.3125 13.292969 15.246094 13.421875 15.121094 13.425781 C 14.992188 13.425781 14.933594 13.300781 14.925781 13.164062 C 14.910156 12.898438 14.898438 12.628906 14.867188 12.367188 C 14.699219 10.96875 13.746094 9.8125 12.550781 9.5625 C 12.371094 9.527344 12.1875 9.515625 12.007812 9.492188 C 11.890625 9.480469 11.742188 9.472656 11.714844 9.304688 C 11.695312 9.164062 11.796875 9.054688 11.910156 9.046875 C 11.941406 9.046875 11.972656 9.046875 12.003906 9.046875 C 13.613281 9.097656 11.972656 9.046875 12.003906 9.046875 Z M 12.003906 9.046875 "/>
<path style=" stroke:none;fill-rule:nonzero;fill:rgb(100%,100%,100%);fill-opacity:1;" d="M 14.449219 12.742188 C 14.445312 12.765625 14.445312 12.820312 14.429688 12.875 C 14.390625 13.0625 14.144531 13.085938 14.085938 12.894531 C 14.070312 12.839844 14.070312 12.773438 14.070312 12.714844 C 14.066406 12.316406 13.992188 11.917969 13.820312 11.574219 C 13.644531 11.21875 13.375 10.921875 13.058594 10.738281 C 12.867188 10.628906 12.660156 10.5625 12.453125 10.519531 C 12.359375 10.503906 12.265625 10.492188 12.175781 10.476562 C 12.0625 10.460938 12.003906 10.378906 12.007812 10.25 C 12.015625 10.128906 12.089844 10.042969 12.203125 10.050781 C 12.570312 10.074219 12.925781 10.167969 13.253906 10.371094 C 13.921875 10.78125 14.304688 11.433594 14.414062 12.300781 C 14.421875 12.339844 14.429688 12.378906 14.429688 12.417969 C 14.4375 12.515625 14.441406 12.613281 14.449219 12.742188 C 14.445312 12.765625 14.441406 12.613281 14.449219 12.742188 Z M 14.449219 12.742188 "/>
<path style=" stroke:none;fill-rule:nonzero;fill:rgb(100%,100%,100%);fill-opacity:1;" d="M 13.445312 12.699219 C 13.3125 12.699219 13.242188 12.613281 13.226562 12.46875 C 13.21875 12.371094 13.210938 12.269531 13.1875 12.171875 C 13.148438 11.976562 13.0625 11.800781 12.921875 11.683594 C 12.855469 11.625 12.78125 11.585938 12.703125 11.558594 C 12.605469 11.527344 12.503906 11.535156 12.40625 11.507812 C 12.296875 11.476562 12.238281 11.375 12.257812 11.257812 C 12.269531 11.152344 12.359375 11.070312 12.460938 11.078125 C 13.082031 11.128906 13.527344 11.507812 13.59375 12.363281 C 13.597656 12.421875 13.601562 12.488281 13.589844 12.542969 C 13.570312 12.644531 13.507812 12.691406 13.445312 12.699219 C 13.3125 12.699219 13.507812 12.691406 13.445312 12.699219 Z M 13.445312 12.699219 "/>
<path style=" stroke:none;fill-rule:nonzero;fill:rgb(81.960784%,81.960784%,81.960784%);fill-opacity:1;" d="M 18.347656 9.839844 L 18.34375 9.820312 C 18.164062 8.972656 17.632812 8.089844 16.964844 7.417969 L 16.0625 8.351562 C 16.597656 8.851562 17.058594 9.542969 17.1875 10.144531 C 17.546875 12.054688 17.546875 13.988281 17.1875 15.898438 C 16.972656 16.886719 15.875 18.113281 15.003906 18.339844 C 13.863281 18.59375 12.710938 18.699219 11.5625 18.664062 C 11.539062 18.664062 11.515625 18.671875 11.5 18.691406 C 11.339844 18.886719 10.429688 19.972656 10.429688 19.972656 L 9.292969 21.335938 C 9.210938 21.4375 9.0625 21.371094 9.0625 21.230469 L 9.0625 18.433594 C 9.0625 18.386719 9.035156 18.347656 8.996094 18.339844 C 8.5 18.210938 7.933594 17.757812 7.496094 17.210938 L 6.601562 18.132812 C 7.160156 18.839844 7.878906 19.410156 8.578125 19.644531 L 8.578125 21.332031 C 8.578125 21.945312 9.21875 22.246094 9.578125 21.804688 L 11.046875 20.027344 C 11.363281 20.046875 11.683594 20.058594 12 20.058594 C 13.082031 20.058594 14.164062 19.9375 15.234375 19.699219 L 15.25 19.695312 C 16.578125 19.359375 18.023438 17.734375 18.34375 16.222656 L 18.347656 16.207031 C 18.746094 14.09375 18.746094 11.953125 18.347656 9.839844 Z M 18.347656 9.839844 "/>
<path style=" stroke:none;fill-rule:nonzero;fill:rgb(100%,100%,100%);fill-opacity:1;" d="M 13.898438 17.191406 C 14.011719 17.148438 13.761719 17.140625 13.898438 17.191406 Z M 13.898438 17.191406 "/>
<path style=" stroke:none;fill-rule:nonzero;fill:rgb(81.960784%,81.960784%,81.960784%);fill-opacity:1;" d="M 14.902344 15.402344 C 14.726562 15.222656 14.535156 15.066406 14.347656 14.910156 C 14.152344 14.746094 13.957031 14.585938 13.753906 14.4375 C 13.554688 14.289062 13.3125 14.292969 13.125 14.46875 C 12.933594 14.652344 12.847656 15.003906 12.574219 15.039062 C 12.410156 15.0625 12.269531 14.984375 12.125 14.914062 C 11.582031 14.648438 11.167969 14.246094 10.855469 13.734375 L 10.191406 14.421875 C 10.214844 14.453125 10.234375 14.484375 10.257812 14.511719 C 11.15625 15.691406 12.285156 16.457031 13.515625 17.054688 C 13.636719 17.109375 13.761719 17.140625 13.898438 17.191406 C 13.761719 17.140625 14.011719 17.148438 13.898438 17.191406 C 14.011719 17.148438 14.136719 17.125 14.242188 17.0625 C 14.605469 16.832031 14.859375 16.472656 15.035156 16.042969 C 15.128906 15.804688 15.070312 15.578125 14.902344 15.402344 Z M 14.902344 15.402344 "/>
<path style=" stroke:none;fill-rule:nonzero;fill:rgb(100%,100%,100%);fill-opacity:1;" d="M 12.003906 9.046875 C 12.003906 9.046875 12.007812 9.046875 12.007812 9.046875 C 12.097656 9.050781 13.546875 9.097656 12.003906 9.046875 Z M 12.003906 9.046875 "/>
<path style=" stroke:none;fill-rule:nonzero;fill:rgb(81.960784%,81.960784%,81.960784%);fill-opacity:1;" d="M 14.308594 10.164062 L 14.027344 10.457031 C 14.472656 10.960938 14.777344 11.628906 14.867188 12.367188 C 14.898438 12.628906 14.910156 12.898438 14.925781 13.164062 C 14.933594 13.300781 14.992188 13.425781 15.121094 13.425781 C 15.246094 13.421875 15.3125 13.292969 15.300781 13.160156 C 15.28125 12.839844 15.265625 12.515625 15.214844 12.199219 C 15.089844 11.386719 14.769531 10.691406 14.308594 10.164062 Z M 14.308594 10.164062 "/>
<path style=" stroke:none;fill-rule:nonzero;fill:rgb(81.960784%,81.960784%,81.960784%);fill-opacity:1;" d="M 14.414062 12.300781 C 14.335938 11.667969 14.109375 11.152344 13.734375 10.757812 L 13.453125 11.050781 C 13.597656 11.199219 13.726562 11.378906 13.820312 11.574219 C 13.992188 11.917969 14.066406 12.316406 14.070312 12.714844 C 14.070312 12.773438 14.070312 12.839844 14.085938 12.894531 C 14.144531 13.085938 14.390625 13.0625 14.429688 12.875 C 14.445312 12.820312 14.445312 12.765625 14.449219 12.742188 C 14.445312 12.765625 14.441406 12.613281 14.449219 12.742188 C 14.441406 12.613281 14.4375 12.515625 14.429688 12.417969 C 14.429688 12.378906 14.421875 12.339844 14.414062 12.300781 Z M 14.414062 12.300781 "/>
<path style=" stroke:none;fill-rule:nonzero;fill:rgb(100%,100%,100%);fill-opacity:1;" d="M 14.449219 12.742188 C 14.441406 12.613281 14.445312 12.765625 14.449219 12.742188 Z M 14.449219 12.742188 "/>
<path style=" stroke:none;fill-rule:nonzero;fill:rgb(100%,100%,100%);fill-opacity:1;" d="M 13.445312 12.699219 C 13.449219 12.699219 13.453125 12.695312 13.453125 12.695312 C 13.449219 12.695312 13.4375 12.695312 13.429688 12.695312 C 13.4375 12.695312 13.441406 12.699219 13.445312 12.699219 Z M 13.445312 12.699219 "/>
<path style=" stroke:none;fill-rule:nonzero;fill:rgb(100%,100%,100%);fill-opacity:1;" d="M 13.445312 12.699219 C 13.441406 12.699219 13.4375 12.695312 13.429688 12.695312 C 13.402344 12.699219 13.371094 12.699219 13.445312 12.699219 Z M 13.445312 12.699219 "/>
<path style=" stroke:none;fill-rule:nonzero;fill:rgb(100%,100%,100%);fill-opacity:1;" d="M 13.453125 12.695312 C 13.449219 12.695312 13.449219 12.699219 13.445312 12.699219 C 13.460938 12.695312 13.460938 12.695312 13.453125 12.695312 Z M 13.453125 12.695312 "/>
<path style=" stroke:none;fill-rule:nonzero;fill:rgb(81.960784%,81.960784%,81.960784%);fill-opacity:1;" d="M 13.164062 11.347656 L 12.875 11.644531 C 12.890625 11.65625 12.90625 11.667969 12.921875 11.683594 C 13.0625 11.800781 13.148438 11.976562 13.1875 12.171875 C 13.210938 12.269531 13.21875 12.371094 13.226562 12.46875 C 13.238281 12.605469 13.308594 12.691406 13.429688 12.695312 C 13.4375 12.695312 13.449219 12.695312 13.453125 12.695312 C 13.511719 12.6875 13.570312 12.640625 13.589844 12.542969 C 13.601562 12.488281 13.597656 12.421875 13.59375 12.363281 C 13.558594 11.882812 13.402344 11.554688 13.164062 11.347656 Z M 13.164062 11.347656 "/>
</g>
</svg>
