<?xml version="1.0" encoding="UTF-8"?>
<svg xmlns="http://www.w3.org/2000/svg" xmlns:xlink="http://www.w3.org/1999/xlink" width="24px" height="28px" viewBox="0 0 24 28" version="1.1">
<g id="surface1">
<rect x="0" y="0" width="24" height="28" style="fill:rgb(10.588235%,84.313725%,25.490196%);fill-opacity:1;stroke:none;"/>
<path style=" stroke:none;fill-rule:nonzero;fill:rgb(100%,100%,100%);fill-opacity:1;" d="M 3.605469 23.800781 L 4.78125 18.929688 C 4.027344 17.433594 3.628906 15.726562 3.628906 13.976562 C 3.628906 8.585938 7.390625 4.199219 12.011719 4.199219 C 16.632812 4.199219 20.394531 8.585938 20.394531 13.976562 C 20.394531 19.367188 16.632812 23.757812 12.011719 23.757812 C 10.570312 23.757812 9.160156 23.324219 7.914062 22.507812 Z M 8.132812 20.730469 L 8.390625 20.914062 C 9.476562 21.6875 10.730469 22.097656 12.011719 22.097656 C 15.847656 22.097656 18.972656 18.453125 18.972656 13.976562 C 18.972656 9.5 15.847656 5.855469 12.011719 5.855469 C 8.171875 5.855469 5.050781 9.5 5.050781 13.976562 C 5.050781 15.535156 5.429688 17.050781 6.148438 18.359375 L 6.324219 18.671875 L 5.644531 21.476562 Z M 8.132812 20.730469 "/>
<path style=" stroke:none;fill-rule:nonzero;fill:rgb(100%,100%,100%);fill-opacity:1;" d="M 9.65625 9.425781 L 9.113281 9.390625 C 8.941406 9.378906 8.773438 9.445312 8.644531 9.578125 C 8.382812 9.84375 7.960938 10.359375 7.828125 11.035156 C 7.636719 12.039062 7.933594 13.265625 8.707031 14.496094 C 9.480469 15.722656 10.917969 17.691406 13.464844 18.53125 C 14.285156 18.800781 14.929688 18.617188 15.429688 18.246094 C 15.824219 17.953125 16.09375 17.480469 16.191406 16.945312 L 16.277344 16.472656 C 16.304688 16.320312 16.242188 16.167969 16.121094 16.105469 L 14.28125 15.117188 C 14.164062 15.050781 14.023438 15.09375 13.941406 15.214844 L 13.21875 16.304688 C 13.164062 16.386719 13.074219 16.421875 12.988281 16.386719 C 12.496094 16.183594 10.839844 15.375 9.929688 13.332031 C 9.890625 13.246094 9.902344 13.136719 9.957031 13.0625 L 10.644531 12.132812 C 10.71875 12.035156 10.734375 11.902344 10.691406 11.789062 L 9.898438 9.625 C 9.859375 9.507812 9.761719 9.433594 9.65625 9.425781 Z M 9.65625 9.425781 "/>
</g>
</svg>
