<?xml version="1.0" encoding="UTF-8"?>
<svg xmlns="http://www.w3.org/2000/svg" xmlns:xlink="http://www.w3.org/1999/xlink" width="24px" height="28px" viewBox="0 0 24 28" version="1.1">
<g id="surface1">
<path style=" stroke:none;fill-rule:nonzero;fill:rgb(0%,0%,0%);fill-opacity:1;" d="M 12.199219 0 C 5.691406 0 0.398438 6.175781 0.398438 13.765625 C 0.398438 16.167969 0.9375 18.527344 1.957031 20.601562 L 0.0195312 27.386719 C -0.0273438 27.546875 0.0078125 27.726562 0.109375 27.851562 C 0.183594 27.949219 0.292969 28 0.398438 28 C 0.433594 28 0.46875 27.996094 0.5 27.984375 L 6.847656 26.035156 C 8.496094 27.015625 10.34375 27.535156 12.199219 27.535156 C 18.707031 27.535156 24 21.359375 24 13.765625 C 24 6.175781 18.707031 0 12.199219 0 Z M 12.199219 26.601562 C 10.8125 26.601562 9.433594 26.285156 8.148438 25.691406 L 10.085938 25.1875 C 10.300781 25.132812 10.4375 24.882812 10.390625 24.632812 C 10.34375 24.378906 10.128906 24.222656 9.914062 24.277344 L 6.808594 25.082031 C 6.804688 25.085938 6.804688 25.085938 6.800781 25.085938 C 6.800781 25.089844 6.796875 25.085938 6.792969 25.085938 L 1.011719 26.863281 L 2.773438 20.699219 C 2.8125 20.570312 2.796875 20.429688 2.738281 20.3125 C 1.730469 18.335938 1.199219 16.074219 1.199219 13.765625 C 1.199219 6.691406 6.132812 0.933594 12.199219 0.933594 C 18.265625 0.933594 23.199219 6.691406 23.199219 13.765625 C 23.199219 20.84375 18.265625 26.601562 12.199219 26.601562 Z M 12.199219 26.601562 "/>
<path style=" stroke:none;fill-rule:nonzero;fill:rgb(0%,0%,0%);fill-opacity:1;" d="M 19.828125 17.972656 C 19.261719 16.734375 17.417969 15.445312 17.203125 15.300781 C 16.820312 15.046875 16.421875 14.964844 16.078125 15.078125 C 15.816406 15.160156 15.601562 15.351562 15.457031 15.632812 C 15.1875 16.007812 14.851562 16.449219 14.769531 16.523438 C 14.164062 17 13.703125 16.949219 13.179688 16.339844 L 9.996094 12.621094 C 9.472656 12.011719 9.425781 11.472656 9.832031 10.773438 C 9.898438 10.675781 10.277344 10.28125 10.601562 9.964844 C 10.839844 9.796875 11.003906 9.546875 11.078125 9.242188 C 11.171875 8.84375 11.105469 8.375 10.882812 7.925781 C 10.761719 7.679688 9.65625 5.527344 8.59375 4.867188 C 8.011719 4.507812 7.308594 4.632812 6.84375 5.175781 L 6.140625 5.996094 C 4.992188 7.332031 4.578125 8.847656 4.90625 10.503906 C 5.179688 11.867188 5.960938 13.3125 7.238281 14.800781 L 11.3125 19.554688 C 12.589844 21.042969 13.828125 21.957031 14.996094 22.273438 C 15.3125 22.359375 15.621094 22.402344 15.921875 22.402344 C 16.984375 22.402344 17.96875 21.878906 18.859375 20.835938 L 19.5625 20.015625 C 20.027344 19.472656 20.136719 18.652344 19.828125 17.972656 Z M 18.996094 19.355469 L 18.292969 20.179688 C 17.34375 21.285156 16.324219 21.675781 15.175781 21.363281 C 14.15625 21.089844 13.046875 20.257812 11.878906 18.898438 L 7.804688 14.140625 C 6.636719 12.777344 5.921875 11.484375 5.6875 10.292969 C 5.421875 8.953125 5.753906 7.765625 6.703125 6.65625 L 7.40625 5.835938 C 7.539062 5.679688 7.714844 5.597656 7.894531 5.597656 C 8.003906 5.597656 8.117188 5.628906 8.21875 5.691406 C 8.949219 6.144531 9.890625 7.796875 10.191406 8.390625 C 10.296875 8.609375 10.339844 8.839844 10.304688 8.992188 C 10.285156 9.070312 10.246094 9.128906 10.175781 9.175781 L 10.113281 9.222656 C 9.816406 9.515625 9.296875 10.035156 9.175781 10.242188 C 9.0625 10.433594 8.984375 10.617188 8.917969 10.804688 C 8.789062 10.4375 8.6875 10.03125 8.648438 9.59375 C 8.625 9.335938 8.425781 9.15625 8.207031 9.175781 C 7.988281 9.203125 7.828125 9.433594 7.851562 9.6875 C 8.058594 11.996094 9.59375 13.496094 9.660156 13.558594 C 9.664062 13.566406 9.671875 13.566406 9.679688 13.574219 L 12.613281 16.996094 C 12.625 17.011719 12.636719 17.019531 12.648438 17.03125 C 12.660156 17.050781 12.667969 17.074219 12.683594 17.089844 C 12.734375 17.152344 14.019531 18.601562 15.972656 18.839844 C 15.984375 18.839844 16 18.839844 16.011719 18.839844 C 16.214844 18.839844 16.390625 18.664062 16.410156 18.421875 C 16.433594 18.167969 16.273438 17.9375 16.054688 17.910156 C 15.601562 17.855469 15.1875 17.722656 14.828125 17.554688 C 14.957031 17.484375 15.085938 17.402344 15.21875 17.296875 C 15.398438 17.15625 15.84375 16.546875 16.09375 16.199219 L 16.132812 16.128906 C 16.175781 16.046875 16.222656 16 16.292969 15.976562 C 16.421875 15.933594 16.621094 15.984375 16.804688 16.109375 C 17.316406 16.457031 18.730469 17.554688 19.121094 18.410156 C 19.261719 18.726562 19.214844 19.105469 18.996094 19.355469 Z M 18.996094 19.355469 "/>
</g>
</svg>
